<svg width="24" height="24" viewBox="0 0 24 24" fill="none" xmlns="http://www.w3.org/2000/svg">
<circle cx="12" cy="12" r="11" fill="#F0FAF2"/>
<rect x="5.5" y="5.5" width="11" height="11" rx="0.5" stroke="#223330"/>
<path d="M16.5 16.5V8.59301L20.3173 9.2474C20.9576 9.35716 21.4544 9.86658 21.5482 10.5094L22.4218 16.5H16.5Z" stroke="#223330"/>
<path d="M21 16.5C21 17.8807 19.8807 19 18.5 19C17.1193 19 16 17.8807 16 16.5C16 15.737 16.3418 15.0539 16.8806 14.5954C17.3168 14.2241 17.8822 14 18.5 14C19.8807 14 21 15.1193 21 16.5Z" fill="white"/>
<circle cx="8.5" cy="16.5" r="2.5" fill="white"/>
<circle cx="8.5" cy="16.5" r="2" stroke="#223330"/>
<circle cx="18.5" cy="16.5" r="2" stroke="#223330"/>
<line x1="2" y1="9.5" x2="8" y2="9.5" stroke="#223330"/>
<path d="M3 12.5H8" stroke="#223330"/>
<path d="M2 8.5H7" stroke="white"/>
<path d="M2 11.5H7" stroke="white"/>
</svg>