<svg xmlns="http://www.w3.org/2000/svg" width="26" height="26" viewBox="0 0 26 26">
    <g fill="none" fill-rule="evenodd">
        <g fill="#000" fill-rule="nonzero">
            <g>
                <g>
                    <path d="M25.896 7.628c-.06-1.379-.284-2.327-.603-3.148-.33-.871-.836-1.652-1.5-2.3-.649-.66-1.435-1.172-2.296-1.496-.826-.32-1.769-.542-3.147-.603C16.96.015 16.52 0 12.997 0 9.475 0 9.034.015 7.65.076 6.272.136 5.324.36 4.503.679c-.872.33-1.652.836-2.3 1.5-.66.65-1.172 1.435-1.496 2.296-.32.826-.542 1.769-.603 3.148C.038 9.01.023 9.453.023 12.975c0 3.522.015 3.963.076 5.347.06 1.378.284 2.326.603 3.147.33.872.841 1.652 1.5 2.301.649.659 1.434 1.17 2.296 1.495.826.32 1.769.542 3.147.603 1.384.061 1.825.076 5.347.076 3.523 0 3.964-.015 5.347-.076 1.379-.06 2.327-.284 3.148-.603 1.743-.674 3.122-2.053 3.796-3.796.32-.826.542-1.769.603-3.147.06-1.384.076-1.825.076-5.347 0-3.523-.005-3.964-.066-5.347zM23.56 18.22c-.056 1.267-.269 1.952-.446 2.408-.436 1.13-1.333 2.027-2.464 2.463-.456.177-1.145.39-2.407.446-1.368.06-1.779.076-5.24.076-3.462 0-3.878-.015-5.241-.076-1.267-.056-1.951-.269-2.407-.446-.563-.208-1.075-.537-1.49-.968-.431-.42-.76-.928-.969-1.49-.177-.456-.39-1.146-.445-2.408-.061-1.368-.076-1.779-.076-5.24 0-3.462.015-3.877.076-5.24.055-1.268.268-1.952.445-2.408.208-.563.538-1.075.974-1.49.42-.431.927-.76 1.49-.968.456-.178 1.145-.39 2.407-.446 1.368-.061 1.78-.076 5.24-.076 3.467 0 3.878.015 5.241.076 1.267.056 1.951.268 2.408.446.562.207 1.074.537 1.49.968.43.42.76.927.968 1.49.177.456.39 1.145.446 2.407.06 1.369.076 1.78.076 5.24 0 3.462-.015 3.868-.076 5.236z" transform="translate(-706 -5151) translate(149 5151) translate(557)"/>
                    <path d="M12.997 6.31c-3.679 0-6.664 2.985-6.664 6.665s2.985 6.664 6.664 6.664c3.68 0 6.665-2.985 6.665-6.664 0-3.68-2.985-6.665-6.665-6.665zm0 10.988c-2.387 0-4.323-1.936-4.323-4.323 0-2.388 1.936-4.324 4.323-4.324 2.388 0 4.324 1.936 4.324 4.324 0 2.387-1.936 4.323-4.324 4.323zM21.482 6.046c0 .86-.697 1.556-1.556 1.556-.86 0-1.556-.696-1.556-1.556 0-.859.696-1.555 1.556-1.555.86 0 1.556.696 1.556 1.555z" transform="translate(-706 -5151) translate(149 5151) translate(557)"/>
                </g>
            </g>
        </g>
    </g>
</svg>
