<svg xmlns="http://www.w3.org/2000/svg" width="48" height="35" viewBox="0 0 48 35">
    <g fill="none" fill-rule="evenodd">
        <g fill="#CAD7E0" fill-rule="nonzero">
            <g>
                <path d="M634.36 367.44c2.08 0 3.94-.84 5.58-2.52 1.64-1.68 2.46-3.68 2.46-6 0-2.4-.74-4.26-2.22-5.58-1.48-1.32-3.22-1.98-5.22-1.98-.64 0-1.32-.04-2.04-.12-.72-.08-1.16-.4-1.32-.96-.16-1.44.16-2.88.96-4.32.8-1.44 1.84-2.78 3.12-4.02 1.28-1.24 2.66-2.32 4.14-3.24 1.48-.92 2.82-1.54 4.02-1.86V333c-2.48.56-4.88 1.56-7.2 3-2.32 1.44-4.36 3.16-6.12 5.16-1.76 2-3.18 4.22-4.26 6.66-1.08 2.44-1.62 4.98-1.62 7.62 0 3.36.82 6.2 2.46 8.52 1.64 2.32 4.06 3.48 7.26 3.48zm27.96 0c2.08 0 3.94-.84 5.58-2.52 1.64-1.68 2.46-3.68 2.46-6 0-2.4-.74-4.26-2.22-5.58-1.48-1.32-3.22-1.98-5.22-1.98-.64 0-1.32-.04-2.04-.12-.72-.08-1.16-.4-1.32-.96-.16-1.44.16-2.88.96-4.32.8-1.44 1.84-2.78 3.12-4.02 1.28-1.24 2.66-2.32 4.14-3.24 1.48-.92 2.82-1.54 4.02-1.86V333c-2.48.56-4.88 1.56-7.2 3-2.32 1.44-4.36 3.16-6.12 5.16-1.76 2-3.18 4.22-4.26 6.66-1.08 2.44-1.62 4.98-1.62 7.62 0 3.36.82 6.2 2.46 8.52 1.64 2.32 4.06 3.48 7.26 3.48z" transform="translate(-622 -4234) translate(-2 3901)"/>
            </g>
        </g>
    </g>
</svg>
