<svg xmlns="http://www.w3.org/2000/svg" width="21" height="27" viewBox="0 0 21 27">
    <g fill="none" fill-rule="evenodd" stroke-linecap="round" stroke-linejoin="round">
        <g stroke-width="1.5">
            <g>
                <path stroke="#2C3E50" d="M9.347 12.667c3.352 0 6.07-2.718 6.07-6.07 0-3.352-2.718-6.07-6.07-6.07-3.352 0-6.07 2.718-6.07 6.07 0 3.352 2.718 6.07 6.07 6.07z" transform="translate(-153 -1370) translate(154 1371)"/>
                <path stroke="#BD2345" d="M7.947 10.104c1.603 0 2.903-1.3 2.903-2.903" transform="translate(-153 -1370) translate(154 1371) rotate(44 9.398 8.653)"/>
                <path stroke="#2C3E50" d="M19 25.212v-4.613c0-2.762-2.239-5-5-5H5c-2.761 0-5 2.238-5 5v4.613h19z" transform="translate(-153 -1370) translate(154 1371)"/>
            </g>
        </g>
    </g>
</svg>
