<svg width="42" height="40" viewBox="0 0 42 40" fill="none" xmlns="http://www.w3.org/2000/svg">
<path d="M31.598 39.3252H25.6648L16.7163 23.897H21.2833C22.6495 23.897 23.9278 23.3506 24.8451 22.4333C25.8502 21.4281 26.3967 20.1498 26.3089 18.7836C26.3089 16.0415 24.0254 13.758 21.2833 13.758H10.9588L8.04102 8.64453H21.4589C24.2011 8.64453 26.7578 9.64965 28.6704 11.5623C30.5831 13.475 31.6858 16.0317 31.5882 18.7738C31.676 20.8719 31.0417 22.8821 29.8512 24.5216C28.8461 26.2586 27.2945 27.6248 25.4697 28.3567L31.598 39.3252Z" fill="#aaa6a0"/>
<path d="M17.8092 39.3251H8.94852C4.02049 39.3251 0 35.4022 0 30.4644V30.3766V8.55664L5.11344 17.5052V29.8301C5.11344 32.299 7.12369 34.2117 9.495 34.2117H14.7939L17.8092 39.3251Z" fill="#aaa6a0"/>
<path d="M32.0679 0.154555C31.6093 -0.118682 30.975 -0.0308538 30.6041 0.427795L27.7742 4.80935C27.5009 5.268 27.5888 5.9023 28.0474 6.27312C28.5061 6.54636 29.1404 6.45853 29.5112 5.99988L32.3412 1.61833C32.6144 1.15968 32.5266 0.515619 32.0679 0.154555Z" fill="#aaa6a0"/>
<path d="M39.738 8.83014C39.377 8.37149 38.7329 8.28366 38.2743 8.5569L33.9805 11.4747C33.5219 11.8357 33.4341 12.4798 33.7073 12.9385C34.0684 13.3971 34.7124 13.4849 35.1711 13.2117L39.4648 10.2939C40.0113 10.0109 40.0113 9.37661 39.738 8.83014Z" fill="#aaa6a0"/>
<path d="M41.475 21.9742C41.5628 21.3399 41.2017 20.7837 40.5577 20.608L35.5321 19.6029C34.8978 19.5151 34.3415 19.8761 34.1659 20.5202C34.0781 21.1545 34.4391 21.7107 35.0832 21.8864L40.1088 22.8915C40.6553 23.0769 41.2993 22.7061 41.3872 22.0718C41.475 21.9742 41.475 21.9742 41.475 21.9742Z" fill="#aaa6a0"/>
</svg>
