<svg width="115" height="21" viewBox="0 0 115 21" fill="none" xmlns="http://www.w3.org/2000/svg">
<path d="M16.682 20.9999H13.5504L8.82653 12.76H11.2366C11.9581 12.76 12.6364 12.4682 13.1174 11.9818C13.6466 11.4467 13.9352 10.7609 13.8871 10.0312C13.8871 8.56714 12.6797 7.3511 11.2366 7.3511H5.78634L4.24219 4.62231H11.328C12.7759 4.62231 14.1228 5.15737 15.1378 6.18371C16.148 7.20518 16.7301 8.572 16.682 10.0361C16.7301 11.1597 16.3933 12.2298 15.768 13.1054C15.2388 14.0296 14.4163 14.7641 13.4542 15.1532L16.682 20.9999Z" fill="#D23427"/>
<path d="M9.39959 20.9999H4.72385C2.1214 20.9999 0 18.9035 0 16.272V16.2233V4.56885L2.69866 9.34544V15.9266C2.69866 17.2448 3.76176 18.2663 5.01248 18.2663H7.80734L9.39959 20.9999Z" fill="#0E0A2B"/>
<path d="M16.9309 0.0820796C16.6904 -0.0638447 16.3536 -0.0151944 16.1612 0.228013L14.6652 2.56767C14.5208 2.81087 14.569 3.15137 14.8095 3.34593C15.05 3.49186 15.3867 3.44321 15.5791 3.2L17.0752 0.860346C17.2195 0.622003 17.1714 0.276645 16.9309 0.0820796Z" fill="#D23427"/>
<path d="M20.9835 4.7175C20.7911 4.4743 20.4544 4.42566 20.2139 4.57159L17.9481 6.13297C17.7076 6.32754 17.6595 6.66803 17.8038 6.91124C17.9963 7.15445 18.333 7.20308 18.5735 7.05716L20.8392 5.49577C21.1278 5.34985 21.1278 5.00935 20.9835 4.7175Z" fill="#D23427"/>
<path d="M21.8956 11.7362C21.9437 11.3957 21.7513 11.1038 21.4146 11.0066L18.764 10.4715C18.4273 10.4229 18.1387 10.6174 18.0425 10.9579C17.9944 11.2984 18.1868 11.5903 18.5235 11.6875L21.1741 12.2226C21.4627 12.3199 21.7994 12.1253 21.8475 11.7848C21.8956 11.7362 21.8956 11.7362 21.8956 11.7362Z" fill="#D23427"/>
<path d="M25.3626 16.7255C25.0483 16.4174 24.8887 16.0115 24.8887 15.5077V4.55811H27.3504V15.0187H34.1311V17.1851H26.6201C26.0929 17.1851 25.677 17.0287 25.3626 16.7255Z" fill="#0E0A2B"/>
<path d="M36.7629 16.8863C36.1873 16.5929 35.7376 16.1723 35.4232 15.6344C35.1088 15.0915 34.9492 14.4704 34.9492 13.7564V11.6438C34.9492 10.9347 35.1088 10.3038 35.4329 9.75609C35.7521 9.20837 36.2019 8.7829 36.7822 8.48459C37.3578 8.18627 38.0203 8.03467 38.77 8.03467H40.3757C41.1253 8.03467 41.7879 8.18627 42.3634 8.48459C42.939 8.7829 43.3888 9.20837 43.7128 9.75609C44.032 10.3038 44.1964 10.9298 44.1964 11.6438V13.7564C44.1964 14.4656 44.0368 15.0915 43.7128 15.6344C43.3936 16.1772 42.9438 16.5929 42.3634 16.8863C41.7879 17.1797 41.1156 17.3265 40.3563 17.3265H38.7506C38.001 17.3265 37.3384 17.1797 36.7629 16.8863ZM40.3176 15.2187C40.7578 15.2187 41.1108 15.0671 41.372 14.759C41.6331 14.4509 41.7637 14.0548 41.7637 13.5608V11.8101C41.7637 11.3161 41.6331 10.9151 41.372 10.6119C41.1108 10.3038 40.7674 10.1522 40.337 10.1522H38.8038C38.3782 10.1522 38.03 10.3038 37.7688 10.6119C37.5077 10.92 37.3771 11.321 37.3771 11.8101V13.5608C37.3771 14.0548 37.5077 14.4558 37.7688 14.759C38.03 15.0671 38.3686 15.2187 38.7845 15.2187H40.3176Z" fill="#0E0A2B"/>
<path d="M47.2069 20.0264C46.5781 19.4787 46.2251 18.7598 46.1525 17.8698H48.5417C48.5659 18.1338 48.6723 18.349 48.8609 18.5104C49.0495 18.6718 49.2865 18.7549 49.5767 18.7549H51.1824C51.55 18.7549 51.8498 18.6033 52.082 18.2952C52.3141 17.9871 52.4302 17.5861 52.4302 17.0971V16.251C52.1932 16.5151 51.903 16.7254 51.5645 16.8819C51.2259 17.0384 50.9019 17.1166 50.5924 17.1166H49.3688C48.2854 17.1166 47.4148 16.7939 46.7571 16.1434C46.0993 15.493 45.7656 14.6421 45.7656 13.5809V11.7421C45.7656 11.0085 45.9204 10.363 46.2299 9.80547C46.5395 9.24796 46.9747 8.81272 47.5309 8.50462C48.0919 8.19652 48.7303 8.04492 49.4558 8.04492H50.4908C50.8971 8.04492 51.2888 8.14273 51.6757 8.33346C52.0626 8.52418 52.3722 8.77848 52.614 9.09147V8.18185H54.8629V17.0922C54.8629 17.8355 54.713 18.4908 54.4083 19.0581C54.1036 19.6254 53.6732 20.0607 53.117 20.3737C52.5559 20.6866 51.9127 20.8431 51.1872 20.8431H49.5816C48.6288 20.8431 47.8404 20.5693 47.2069 20.0264ZM50.7568 15.0382C51.2066 15.0382 51.5887 14.8475 51.8982 14.4709C52.2077 14.0944 52.3867 13.5955 52.435 12.9842V11.7372C52.3867 11.2579 52.2271 10.8716 51.9514 10.583C51.6757 10.2945 51.3323 10.1527 50.9164 10.1527H49.6686C49.2285 10.1527 48.8706 10.3141 48.5998 10.6417C48.3241 10.9645 48.1887 11.3949 48.1887 11.923V13.3999C48.1887 13.8939 48.3144 14.29 48.5611 14.5883C48.8126 14.8866 49.1318 15.0382 49.5235 15.0382H50.7568Z" fill="#0E0A2B"/>
<path d="M57.5653 6.92974C57.2848 6.66077 57.1445 6.30377 57.1445 5.85874C57.1445 5.41371 57.2848 5.05671 57.5653 4.78774C57.8458 4.51877 58.2182 4.38184 58.6777 4.38184C59.142 4.38184 59.5144 4.51877 59.79 4.78774C60.0706 5.05671 60.2108 5.4186 60.2108 5.85874C60.2108 6.30377 60.0706 6.66077 59.79 6.92974C59.5095 7.19871 59.1371 7.33565 58.6777 7.33565C58.2134 7.33565 57.841 7.19871 57.5653 6.92974ZM57.4637 8.18169H59.8916V17.1849H57.4637V8.18169Z" fill="#0E0A2B"/>
<path d="M63.9484 16.8765C63.3729 16.5782 62.9231 16.1528 62.6087 15.6148C62.2944 15.072 62.1348 14.446 62.1348 13.7369V11.6242C62.1348 10.9151 62.2944 10.2891 62.6087 9.74631C62.9231 9.20348 63.3681 8.7829 63.9388 8.48459C64.5094 8.18627 65.172 8.03467 65.9168 8.03467H67.3242C68.04 8.03467 68.6688 8.18138 69.2153 8.46502C69.7618 8.75356 70.1826 9.15946 70.4824 9.68274C70.7774 10.206 70.9274 10.8124 70.9274 11.4971H68.5188C68.5188 11.0863 68.4076 10.7586 68.19 10.5141C67.9675 10.2696 67.6821 10.1424 67.3242 10.1424H65.9507C65.5348 10.1424 65.1962 10.294 64.9447 10.6021C64.6884 10.9102 64.5626 11.3112 64.5626 11.8003V13.5511C64.5626 14.045 64.6932 14.446 64.9544 14.7492C65.2156 15.0573 65.5541 15.2089 65.97 15.2089H67.3436C67.7257 15.2089 68.0304 15.072 68.2625 14.7932C68.4947 14.5145 68.6107 14.1477 68.6107 13.6929H71.0193C71.0193 14.7883 70.6807 15.6637 70.0133 16.3288C69.341 16.989 68.4511 17.3216 67.3484 17.3216H65.941C65.1865 17.3264 64.524 17.1748 63.9484 16.8765Z" fill="#0E0A2B"/>
<path d="M72.7715 4.55811H79.407C80.4904 4.55811 81.361 4.85153 82.0187 5.44327C82.6765 6.03501 83.0102 6.80769 83.0102 7.77111V9.03283C83.0102 9.6588 82.8361 10.2016 82.483 10.6662C82.1299 11.1308 81.6221 11.4829 80.9595 11.7226V11.7568C81.3416 12.0111 81.627 12.2996 81.8252 12.6224C82.0235 12.9452 82.217 13.4 82.4056 13.977L83.4068 17.19H80.858L79.9149 14.1971C79.7601 13.6787 79.5473 13.2973 79.2716 13.043C78.9959 12.7887 78.6574 12.6664 78.256 12.6664H75.2429V17.1949H72.7812V4.55811H72.7715ZM78.9427 10.5097C79.4409 10.5097 79.8326 10.3728 80.1228 10.1038C80.4082 9.83486 80.5484 9.48275 80.5484 9.0475V7.8738C80.5484 7.52659 80.442 7.24783 80.2292 7.03265C80.0164 6.82237 79.7311 6.71478 79.3732 6.71478H75.2332V10.5048H78.9427V10.5097Z" fill="#0E0A2B"/>
<path d="M85.5767 16.6227C85.006 16.1532 84.7207 15.5321 84.7207 14.7643V14.0993C84.7207 13.3412 85.0157 12.7299 85.6106 12.2702C86.2055 11.8056 86.989 11.5758 87.9659 11.5758H89.0541C89.3637 11.5758 89.6974 11.6198 90.0553 11.703C90.4132 11.7861 90.7372 11.9035 91.0371 12.0453V11.1063C91.0371 10.808 90.9403 10.5635 90.742 10.3776C90.5486 10.1918 90.2874 10.0989 89.9682 10.0989H88.4351C88.1014 10.0989 87.8353 10.1771 87.6322 10.3336C87.4291 10.4901 87.3275 10.7004 87.3275 10.9645H84.9722C84.9722 10.0842 85.2914 9.38001 85.925 8.84695C86.5634 8.3139 87.3952 8.04492 88.4302 8.04492H89.9634C91.008 8.04492 91.8544 8.32368 92.4976 8.88607C93.1409 9.44358 93.4601 10.1869 93.4601 11.1161V17.1949H91.2112V16.1141C90.9258 16.4858 90.5728 16.7841 90.1568 17.009C89.7409 17.2291 89.3298 17.3416 88.9284 17.3416H87.8208C86.8971 17.3269 86.1474 17.0922 85.5767 16.6227ZM89.1122 15.449C89.5523 15.449 89.944 15.3365 90.2922 15.1067C90.6356 14.8768 90.8871 14.5736 91.0419 14.1873V13.8792C90.8533 13.7374 90.5873 13.62 90.2487 13.5369C89.9102 13.4537 89.5474 13.4097 89.1702 13.4097H88.0482C87.7628 13.4097 87.5307 13.4831 87.3517 13.6249C87.1728 13.7667 87.0857 13.9623 87.0857 14.202V14.6714C87.0857 14.9013 87.1824 15.0871 87.3807 15.2289C87.579 15.3756 87.8353 15.4441 88.1546 15.4441H89.1122V15.449Z" fill="#0E0A2B"/>
<path d="M96.718 20.0262C96.0941 19.4785 95.7459 18.7596 95.6734 17.8695H98.0626C98.0867 18.1336 98.1931 18.3488 98.3818 18.5102C98.5704 18.6716 98.8122 18.7547 99.0975 18.7547H100.558C100.926 18.7547 101.226 18.6031 101.458 18.295C101.69 17.9869 101.806 17.5859 101.806 17.0969V15.9232C101.53 16.2948 101.221 16.5883 100.868 16.7985C100.515 17.0088 100.166 17.1164 99.823 17.1164H98.6429C97.7047 17.1164 96.9502 16.7985 96.3795 16.1677C95.8088 15.5368 95.5234 14.6957 95.5234 13.6491V8.18164H97.9513V13.6834C97.9513 14.0795 98.048 14.4022 98.2463 14.6468C98.4446 14.8913 98.701 15.0184 99.0202 15.0184H100.055C100.447 15.0184 100.805 14.8522 101.124 14.5245C101.443 14.192 101.671 13.7567 101.801 13.2188V8.18164H104.229V17.092C104.229 17.8353 104.079 18.4906 103.774 19.0579C103.47 19.6252 103.039 20.0605 102.483 20.3734C101.922 20.6864 101.284 20.8429 100.558 20.8429H99.0975C98.1351 20.8429 97.3419 20.5691 96.718 20.0262Z" fill="#0E0A2B"/>
<path d="M107.076 16.4613C106.423 15.8843 106.094 15.1263 106.094 14.1873H108.483C108.483 14.5101 108.594 14.7742 108.812 14.9698C109.029 15.1703 109.32 15.2681 109.678 15.2681H111.283C111.999 15.2681 112.352 15.0676 112.352 14.6715V14.3634C112.352 14.2411 112.294 14.1335 112.173 14.0308C112.052 13.9281 111.893 13.8596 111.689 13.8254L108.604 13.2826C107.878 13.1603 107.303 12.9011 106.882 12.5001C106.461 12.0991 106.249 11.6247 106.249 11.0819V10.4853C106.249 9.71746 106.563 9.11594 107.187 8.6807C107.811 8.24545 108.681 8.03027 109.798 8.03027H111.191C112.192 8.03027 112.995 8.29925 113.61 8.8323C114.224 9.37025 114.528 10.0745 114.528 10.9498H112.139C112.139 10.6858 112.052 10.4755 111.883 10.319C111.709 10.1625 111.482 10.0842 111.196 10.0842H109.842C109.068 10.0842 108.681 10.2652 108.681 10.6271V10.9156C108.681 11.0477 108.734 11.1601 108.831 11.2482C108.933 11.3362 109.078 11.3998 109.266 11.4389L112.512 12.0355C113.189 12.1578 113.735 12.4121 114.151 12.8033C114.567 13.1945 114.775 13.6347 114.775 14.1286V14.779C114.775 15.5615 114.456 16.1826 113.822 16.6374C113.189 17.0922 112.338 17.3221 111.278 17.3221H109.673C108.599 17.3269 107.728 17.0384 107.076 16.4613Z" fill="#0E0A2B"/>
</svg>
