<svg xmlns="http://www.w3.org/2000/svg" viewBox="0 0 504.38 437.34"><g id="Layer_2" data-name="Layer 2"><g id="Layer_1-2" data-name="Layer 1"><path d="M102.81,56h40.91c.66-9.92.23-19.34.24-28.65-3.57-1.32-53.73-1.8-61.88-.69-1,3.42-1.33,391.21-.34,397.61,3.83,1,308.78,1.09,314.27,0,0-10.57.06-21.31.1-31.93,4.14-1.81,7.71-1.2,11.2-.81,1.18,3.6,1.51,38.56.5,44.84-.13.12-.24.24-.37.34s-.26.24-.41.26a16,16,0,0,1-2.46.33q-166.72,0-333.46,0a5.69,5.69,0,0,1-1.47-.22,3.6,3.6,0,0,1-.84-.49c-1-3.83-1.11-417.73,0-423.35,6.06-.41,12.34-.13,18.59-.19s12.33,0,18.5,0h37.88c.2-4.38.37-8.27.54-12C148.44-.17,326.21-.37,332.09.75v13H407.6c.19,2.25.46,4,.46,5.74q0,47,0,94,0,22,0,44c0,1.77-.23,3.54-.38,5.54H396.21c-.12-2.15-.35-4.23-.35-6.31q0-62,0-124V26.54H332.36c-.09,9.67-.14,19.22.1,29.35h42.2c.19,2.42.48,4.32.48,6.23q.06,31.49,0,63,0,28,0,56v5.47c-4.13,1.24-7.71.8-11.91.42-.12-2-.35-3.88-.35-5.8q0-53,0-106V69.55H332.42V82.23c-4.3,1.39-182.89,1.56-188.31.2V69.26H115.39c-.38.42-.5.54-.6.67s-.26.25-.28.39a11,11,0,0,0-.28,2q0,160.23,0,320.46a9.86,9.86,0,0,0,.43,1.77H363.56c.59-4.43.19-9,.26-13.61s0-9.31,0-14.13c4-1.38,7.71-1,11.36-.44,1.24,4.44,1.22,35.82,0,39.81a2.32,2.32,0,0,1-.35.35,1.2,1.2,0,0,1-.45.23,13.62,13.62,0,0,1-2.44.39q-133.23,0-266.46,0a10,10,0,0,1-2-.24,3.12,3.12,0,0,1-.86-.46C101.67,402.45,101.58,61.28,102.81,56Zm53.75,14.79H319.3c1.1-4.88,1-53,0-56.95-5.62-1-159-.74-162.72.31Z"/><path d="M420.51,175.43c1.12,7.18,2.13,13.71,3.18,20.5l20.82,8.54,16.54-11.08,25.53,25.52L475.49,235.5l9,20.8,18.82,3.84c1.16,3.8,1.46,28.9.41,36.24l-18.93,4.11-8.65,20.59,11,16.29c-1.77,3.45-18.33,20.52-25.1,25.89l-16.9-11.14L424.56,361c-1.31,6.24-2.72,13-4.16,19.93H384.52c-1.33-6.47-2.65-12.93-4.13-20.14l-20.59-8.61-16.9,11-25.15-25.69c3.24-4.9,7.08-10.68,10.83-16.34l-8.8-20.65c-2.71-.63-6.06-1.45-9.44-2.18s-6.72-1.32-10.23-2v-36L320,256.26l8.75-20.52L317.59,219c1.91-3.27,19-20.7,25.21-25.74l16.85,11.22,20.92-9c1.26-6.47,2.56-13.12,3.91-20Zm52.72,90.31c-1.79-11.67-6.85-21.74-12.76-31.56l10.89-15.93-10.43-10.4L444.78,218c-9.49-6.42-19.31-11.15-30.57-12.92-1.26-6.44-2.45-12.55-3.67-18.82-5.35.17-10.12-.53-14.89.46l-3.18,18.26c-11.31,2.69-22.15,6.28-31.51,13.14l-16-11L334.53,217.7l10.05,15.86a92.25,92.25,0,0,0-12.92,31.38l-19.34,3.64c.15,5.29-.46,10.05.41,14.8l19,3.39c1.43,11.94,6.88,21.86,12.69,31.61L334.09,333.6,345,344.31l15-9.78c9.41,6.7,19.84,10.43,30.72,13l3.62,19.15H409c1.16-6,2.31-12,3.52-18.24,11.24-2.51,22-6.38,31.59-12.89l16,10.75,11.14-10.44-11-16.13c7.36-9.08,10.45-19.61,13.07-30.59l18.33-4.85v-15Z"/><path d="M22.36,165.93c1.61,2.72,3,4.74,4.06,6.91,5.37,10.91,10.61,21.88,16,32.77a17.53,17.53,0,0,1,1.92,8.13c0,67-.13,134,.07,200.92,0,10.42-7.16,19.69-16.16,22-12,3.09-25.09-4.9-27.3-17a50.18,50.18,0,0,1-.86-8.91Q0,314,0,217.32a25.39,25.39,0,0,1,2.74-12c5.79-11.44,11.29-23,16.92-34.54C20.37,169.38,21.22,168,22.36,165.93Zm9,218.86c1.08-5.05,1-145.08,0-148.93-5.1-.85-15.06-.71-18.62.26-1,8.4-.58,145.05.53,148.67Zm.54,12.81H12.45c0,6.14-.14,11.93.09,17.71a11.1,11.1,0,0,0,1.86,5.1c2.11,3.36,5.22,5.06,9.31,4.44s7.84-3.54,8-7.15C32.11,411.12,31.85,404.5,31.85,397.6ZM22.38,193.87c-3.14,6.26-5.71,11.62-8.5,16.86-2.09,3.92-1.88,7.85-1.07,11.87,6.9,1,15.46.72,19.43-.69-.28-3.25.14-6.95-1.05-10C28.92,206.05,25.73,200.57,22.38,193.87Z"/><path d="M207.24,157.24V145q68.31-.13,135.72,0c1.43,4.21,1.49,7.16.22,12.24C298.18,157.28,253,157.25,207.24,157.24Z"/><path d="M207.12,332V321.23c.36-.33.48-.45.61-.55a1.21,1.21,0,0,1,.4-.28,5.61,5.61,0,0,1,1.45-.31q44.7-.06,89.4-.07a20.66,20.66,0,0,1,2.49.12,9.84,9.84,0,0,1,1.63.52c1.83,3.55.81,7.25.67,11.29Z"/><path d="M188.71,118.85c1,.75,1.72,1.19,2.35,1.69,2.2,1.77,4.39,3.56,6.29,5.1-2.25,4.32-39.55,42.21-47.7,48.73L129,152.81l8.57-9.6c4.53,4.43,8.65,8.46,13,12.73,6.48-6.43,12.68-12.68,19-18.82S182.26,125,188.71,118.85Z"/><path d="M151.36,260.5l-20.87-21,7.12-8.16,13,12.51,38.27-38.23,8.48,9.41C182.38,231.11,165.92,245.3,151.36,260.5Z"/><path d="M196.88,301.75l-46.19,46.19L130,327.17l7.31-7.88c5,3.89,8.58,8.49,13.36,12.56l37.8-37.78C192.21,296,194.43,299,196.88,301.75Z"/><path d="M288,232.65v11.59c-27,.1-53.64.09-80.68,0V233C210.74,231.84,280.94,231.46,288,232.65Z"/><path d="M401.91,223.13c29.66,1.71,53.73,22.42,53.83,52.85s-22,54.34-53.82,54.82c-29,.43-53.41-22.15-53.49-53.31C348.36,248,370.45,224.73,401.91,223.13ZM444,277.2c.8-19.5-14.72-41.53-40.77-41.6-23.91-.06-42,18.66-41.89,41.27.12,21.75,16.35,41.65,41.47,41.74C426.09,318.69,444.55,299.1,444,277.2Z"/></g></g></svg>