<svg class="img-fluid" id="outputsvg" xmlns="http://www.w3.org/2000/svg" style="transform: none; transform-origin: 50% 50%; cursor: move; max-height: none;" width="512" height="512" viewBox="0 0 5120 5120"><g id="l7HzOeMPLyqyf405L2tchyh" fill="rgb(0,0,0)" style="transform: none;"><g><path id="pGqdRjSwO" d="M1305 4152 c-86 -29 -149 -68 -208 -127 -87 -87 -135 -186 -146 -300 l-6 -60 -247 -5 c-274 -6 -275 -6 -326 -80 -20 -29 -22 -45 -22 -146 l0 -114 -144 0 c-130 0 -146 -2 -170 -21 -34 -27 -36 -79 -4 -109 21 -19 33 -20 433 -20 400 0 412 1 433 20 32 30 30 82 -4 109 -25 20 -40 21 -210 21 l-184 0 0 95 0 95 235 0 235 0 31 -62 c103 -204 353 -321 564 -264 140 37 273 144 330 264 l29 62 838 0 838 0 0 -318 0 -319 23 -21 c29 -27 67 -28 98 -3 l24 19 3 321 3 321 22 0 c17 0 28 -14 51 -63 37 -79 139 -183 217 -221 154 -75 304 -75 458 0 77 38 180 142 217 221 l29 62 108 0 107 1 0 -179 0 -178 -78 -6 c-119 -8 -192 -53 -236 -147 -18 -38 -21 -64 -21 -171 0 -174 -6 -169 182 -169 163 0 162 1 111 -76 -40 -59 -104 -100 -177 -114 -32 -6 -246 -10 -521 -10 l-468 0 -4 64 c-3 45 -10 71 -22 85 -25 27 -79 28 -106 1 -20 -20 -20 -33 -20 -765 l0 -745 -1550 0 -1550 0 -2 744 c-3 715 -4 745 -22 765 -25 28 -79 28 -106 1 -20 -20 -20 -30 -18 -793 l3 -772 22 -31 c49 -69 -79 -64 1676 -64 l1584 0 33 23 c60 40 74 78 79 204 l3 112 347 3 346 3 49 25 c114 58 181 160 192 292 8 92 1 122 -34 154 l-26 25 65 261 65 261 49 17 c87 28 128 53 183 107 65 65 111 158 123 251 12 98 11 884 -1 918 -19 49 -34 53 -192 54 l-148 0 0 43 c0 24 -7 68 -16 98 -42 145 -135 254 -272 322 l-85 42 -127 0 -127 0 -84 -42 c-93 -46 -175 -120 -222 -200 -36 -63 -67 -164 -67 -219 l0 -44 -910 0 -910 0 0 38 c0 58 -33 165 -71 228 -48 79 -139 160 -229 203 -70 34 -82 36 -185 38 -84 2 -122 -1 -160 -15z m270 -153 c77 -29 154 -102 191 -181 25 -54 29 -75 29 -148 -1 -104 -29 -175 -100 -245 -70 -71 -141 -99 -245 -100 -73 0 -94 4 -148 29 -235 109 -274 423 -73 592 86 72 234 95 346 53z m2822 -1 c72 -27 154 -102 189 -175 33 -66 43 -170 24 -240 -17 -60 -67 -140 -111 -177 -67 -57 -135 -81 -229 -81 -71 0 -94 4 -141 26 -190 89 -265 316 -163 494 84 148 269 214 431 153z m563 -1093 l0 -95 -96 0 -97 0 6 65 c7 96 37 123 135 124 l52 1 0 -95z m-364 -612 c-3 -10 -33 -129 -67 -265 l-61 -248 -359 0 -359 0 0 265 0 265 426 0 c400 0 425 -1 420 -17z m-56 -670 c0 -24 -25 -92 -43 -117 -11 -15 -38 -37 -61 -47 -37 -17 -71 -19 -363 -19 l-323 0 0 95 0 95 395 0 c217 0 395 -3 395 -7z"></path><path id="ppNxirlBV" d="M1369 3807 c-99 -67 -106 -192 -15 -262 108 -82 267 8 253 142 -12 113 -147 181 -238 120z"></path><path id="peys3RaZz" d="M4205 3816 c-98 -42 -124 -173 -52 -250 66 -70 168 -70 234 0 71 76 48 200 -48 249 -35 18 -94 19 -134 1z"></path><path id="pdJIwaLIi" d="M2086 3299 c-34 -27 -36 -77 -3 -107 l23 -22 625 0 626 0 21 23 c31 33 29 80 -4 106 -26 21 -35 21 -644 21 -609 0 -618 0 -644 -21z"></path><path id="pDd6XzbTr" d="M223 2970 c-44 -18 -57 -86 -23 -120 20 -20 33 -20 563 -20 l544 0 21 23 c36 38 28 88 -19 112 -24 13 -110 15 -546 14 -285 0 -528 -4 -540 -9z"></path><path id="p744qPAFn" d="M1693 2397 c-202 -202 -233 -237 -233 -263 0 -38 36 -74 75 -74 24 0 61 32 227 197 l198 197 368 -367 c326 -325 371 -367 399 -367 44 0 76 29 76 69 0 29 -38 71 -404 437 -377 377 -406 404 -439 404 -32 0 -53 -18 -267 -233z"></path></g></g></svg>