<svg class="img-fluid" id="outputsvg" xmlns="http://www.w3.org/2000/svg" style="transform: none; transform-origin: 50% 50%; cursor: move;" width="512" height="512" viewBox="0 0 5120 5120"><g id="l3WQxwAf2hMQJaewkFH698Q" fill="rgb(0,0,0)" style="transform: none;"><g><path id="p12dH7XYIh" d="M944 4360 c-59 -12 -138 -54 -190 -102 -86 -80 -148 -256 -109 -314 23 -36 60 -47 94 -29 31 16 41 33 41 72 0 76 58 165 134 206 l41 22 1623 3 c1100 1 1636 -1 1663 -8 56 -15 119 -68 148 -125 l26 -49 3 -1013 3 -1013 -1821 0 -1820 0 0 90 c0 83 -2 93 -25 115 -29 30 -64 32 -96 6 -23 -18 -24 -26 -27 -165 l-3 -145 43 -73 c25 -40 140 -240 256 -444 116 -204 230 -392 253 -418 51 -58 146 -126 231 -166 132 -62 108 -61 1221 -58 l1012 3 73 27 c131 49 246 128 316 218 19 25 138 225 263 445 126 221 238 414 249 430 19 29 19 54 14 1120 l-5 1090 -30 59 c-54 107 -145 181 -260 210 -52 14 -244 16 -1670 15 -885 -1 -1629 -5 -1651 -9z m3203 -2882 c-231 -407 -260 -445 -377 -511 -126 -70 -75 -67 -1170 -67 -1079 0 -1037 -2 -1159 59 -124 63 -151 98 -374 489 -112 196 -209 367 -216 380 l-12 22 1760 0 1760 0 -212 -372z"></path><path id="pVhmjuKvJ" d="M3251 3714 c-12 -15 -21 -36 -21 -47 0 -14 78 -99 227 -249 l227 -227 -518 -3 -518 -3 -24 -28 c-29 -34 -30 -56 -3 -91 l20 -26 515 0 c283 0 514 -3 514 -8 0 -4 -94 -101 -210 -217 -115 -115 -214 -221 -220 -235 -22 -53 27 -111 82 -97 13 4 157 140 321 305 226 226 297 304 297 322 0 18 -72 97 -302 327 -271 271 -306 303 -335 303 -22 0 -38 -8 -52 -26z"></path><path id="pHDlYzjVk" d="M582 3483 c-12 -10 -24 -30 -28 -45 -5 -22 0 -33 24 -58 l30 -30 337 0 336 0 24 25 c32 31 33 74 2 103 -23 22 -28 22 -364 22 -310 0 -343 -2 -361 -17z"></path><path id="p18jgrbak8" d="M593 3018 c-35 -17 -48 -60 -29 -96 8 -16 23 -32 31 -36 9 -3 274 -6 589 -6 562 0 573 0 594 20 32 30 30 82 -4 109 -26 21 -35 21 -593 20 -375 0 -573 -4 -588 -11z"></path><path id="pvmDq7pMs" d="M603 2550 c-33 -13 -55 -53 -47 -84 14 -58 -17 -56 784 -56 l737 0 21 23 c39 41 23 96 -32 117 -34 13 -1431 13 -1463 0z"></path></g></g></svg>