<svg xmlns="http://www.w3.org/2000/svg" viewBox="0 0 372.46 379.8"><defs><style>.cls-1,.cls-2{fill:none;stroke:#000;stroke-linejoin:round;}.cls-1{stroke-width:15px;}.cls-2{stroke-width:20px;}</style></defs><g id="Layer_2" data-name="Layer 2"><g id="Layer_1-2" data-name="Layer 1"><path d="M316.34,379.8C300.2,361,286.9,344.09,274.47,323.45c-27.29-38.56-15.07-102.36,39.37-104.22,36.26-2.83,64.38,32.6,57.61,67.46C365,324.35,339.87,350.74,316.34,379.8ZM287.18,274.86c-.79,39.19,55.88,40.52,59.77.67C346.36,236.77,286.8,235.07,287.18,274.86Z"/><line class="cls-1" x1="7.5" y1="88.5" x2="185.5" y2="163.5"/><line class="cls-2" x1="90" y1="51" x2="275.5" y2="126.5"/><path d="M194,345.93V168.48L357,99.8v91.93a82.75,82.75,0,0,1,15,9.65V88a7.5,7.5,0,0,0-4.42-6.84L188.58.66a7.5,7.5,0,0,0-6.17,0l-178,80.5A7.49,7.49,0,0,0,0,88V270a7.49,7.49,0,0,0,4.18,6.72l178,88,.22-.44c3.7,6.45,57.65-26,62.18-26.63q-3.81-6.72-6.83-13.35ZM183.59,156.59A7.5,7.5,0,0,0,179,163.5V346.42L15,265.34V92.84L185.51,15.73,346.29,88Z"/><polygon points="36 266 25 261 25 237 36 242 36 266"/><polygon points="49 272 38 267 38 243 49 248 49 272"/><polygon points="62 278 51 273 51 249 62 254 62 278"/><polygon points="75 284 64 279 64 255 75 260 75 284"/><line class="cls-2" x1="275.5" y1="126.5" x2="275.5" y2="182.5"/></g></g></svg>