<?xml version="1.0" encoding="utf-8"?>
<!-- Generator: Adobe Illustrator 26.0.1, SVG Export Plug-In . SVG Version: 6.00 Build 0)  -->
<svg version="1.1" id="Layer_1" xmlns="http://www.w3.org/2000/svg" xmlns:xlink="http://www.w3.org/1999/xlink" x="0px" y="0px"
	 viewBox="0 0 330.7 40.8" style="enable-background:new 0 0 330.7 40.8;" xml:space="preserve">
<style type="text/css">
	.st0{fill:#F9F2EC;}
	.st1{fill:none;stroke:#000000;stroke-miterlimit:10;}
	.st2{fill:none;stroke:#000000;stroke-miterlimit:10;stroke-dasharray:0.99,0.99;}
	.st3{fill:none;stroke:#000000;stroke-miterlimit:10;stroke-dasharray:0.999,0.999;}
	.st4{fill:none;stroke:#000000;stroke-miterlimit:10;stroke-dasharray:0.992,0.992;}
	.st5{fill:none;stroke:#000000;stroke-miterlimit:10;stroke-dasharray:0.9698,0.9698;}
	.st6{fill:none;stroke:#000000;stroke-miterlimit:10;stroke-dasharray:1.0619,1.0619;}
</style>
<g>
	<path class="st0" d="M326.1,20.4c0,2.2,1.8,4.1,4,4.1v15.8H0.5V24.4c2-0.2,3.5-2,3.5-4c0-2.1-1.5-3.8-3.5-4V0.5h329.7v15.8
		C328,16.4,326.1,18.2,326.1,20.4z"/>
	<g>
		<path class="st1" d="M329.7,24.4c0.2,0,0.3,0,0.5,0v0.5"/>
		<line class="st2" x1="330.2" y1="25.9" x2="330.2" y2="39.3"/>
		<polyline class="st1" points="330.2,39.8 330.2,40.3 329.7,40.3 		"/>
		<line class="st3" x1="328.7" y1="40.3" x2="1.5" y2="40.3"/>
		<polyline class="st1" points="1,40.3 0.5,40.3 0.5,39.8 		"/>
		<line class="st4" x1="0.5" y1="38.8" x2="0.5" y2="25.4"/>
		<path class="st1" d="M0.5,24.9v-0.5c0.2,0,0.3-0.1,0.5-0.1"/>
		<path class="st5" d="M1.9,24c1.3-0.7,2.1-2,2.1-3.6c0-1.7-1.1-3.2-2.6-3.8"/>
		<path class="st1" d="M1,16.5c-0.2,0-0.3-0.1-0.5-0.1v-0.5"/>
		<line class="st4" x1="0.5" y1="14.9" x2="0.5" y2="1.5"/>
		<polyline class="st1" points="0.5,1 0.5,0.5 1,0.5 		"/>
		<line class="st3" x1="2" y1="0.5" x2="329.2" y2="0.5"/>
		<polyline class="st1" points="329.7,0.5 330.2,0.5 330.2,1 		"/>
		<line class="st2" x1="330.2" y1="2" x2="330.2" y2="15.4"/>
		<path class="st1" d="M330.2,15.8v0.5c-0.2,0-0.3,0-0.5,0"/>
		<path class="st6" d="M328.7,16.6c-1.5,0.6-2.5,2.1-2.5,3.7c0,1.9,1.3,3.5,3,3.9"/>
	</g>
</g>
</svg>
