<svg id="Layer_1" data-name="Layer 1" xmlns="http://www.w3.org/2000/svg" viewBox="0 0 202.63 29"><title>saree.com logo</title><path d="M14.8,16.09a9.46,9.46,0,0,0-2.18-1.54,20.62,20.62,0,0,0-2.23-1,18.81,18.81,0,0,1-3.24-1.46,5.69,5.69,0,0,1-1.82-1.6,3.5,3.5,0,0,1-.56-2,3,3,0,0,1,1-2.3,4,4,0,0,1,2.88-.94A4.87,4.87,0,0,1,11,5.77a5.49,5.49,0,0,1,1.63,1.38,7,7,0,0,1,1,1.73l.3.72L16.93,8l-.24-.56a9.83,9.83,0,0,0-1.57-2.54A8.53,8.53,0,0,0,12.5,2.79,8.12,8.12,0,0,0,8.73,2,8.37,8.37,0,0,0,5,2.8,6.54,6.54,0,0,0,2.28,5.2a6.61,6.61,0,0,0-1,3.52A6.38,6.38,0,0,0,2,11.81,7.18,7.18,0,0,0,3.83,14a11.68,11.68,0,0,0,2.3,1.44,22.66,22.66,0,0,0,2.29,1,22.75,22.75,0,0,1,2.65,1.2A5.74,5.74,0,0,1,13,19.18a4.19,4.19,0,0,1,.68,2.52,3.89,3.89,0,0,1-1.16,2.92,4.55,4.55,0,0,1-3.33,1.14,5.18,5.18,0,0,1-2.72-.67,6.25,6.25,0,0,1-1.95-1.85,14,14,0,0,1-1.41-2.72l-.3-.78L0,21.48.18,22A13.26,13.26,0,0,0,2,25.43,9,9,0,0,0,5,28a8.57,8.57,0,0,0,4.15,1,9.21,9.21,0,0,0,3.1-.52,7.62,7.62,0,0,0,2.54-1.54,7.29,7.29,0,0,0,1.7-2.39,7.65,7.65,0,0,0,.61-3.07,7.25,7.25,0,0,0-.64-3.13A7.53,7.53,0,0,0,14.8,16.09Z"/><path d="M62.23,17.59a7.6,7.6,0,0,0,3.31-2.73,7.5,7.5,0,0,0,1.23-4.31,7.46,7.46,0,0,0-1.23-4.33,7.82,7.82,0,0,0-3.31-2.7,11.17,11.17,0,0,0-4.62-.92H51.2V29h3.35V18.49h2.23L64.08,29h4.13L60.46,18.18A9.94,9.94,0,0,0,62.23,17.59Zm-7.68-2.23V5.73h3.06a7.59,7.59,0,0,1,3.08.59,4.6,4.6,0,0,1,2,1.62,4.54,4.54,0,0,1,.72,2.61,4.65,4.65,0,0,1-.71,2.63,4.34,4.34,0,0,1-2,1.61,8,8,0,0,1-3.11.57Z"/><polygon points="75.33 29 86.7 29 86.7 25.76 78.67 25.76 78.67 16.2 85.99 16.2 85.99 12.97 78.67 12.97 78.67 5.84 86.7 5.84 86.7 2.6 75.33 2.6 75.33 29"/><polygon points="95.71 29 107.09 29 107.09 25.76 99.06 25.76 99.06 16.2 106.37 16.2 106.37 12.97 99.06 12.97 99.06 5.84 107.09 5.84 107.09 2.6 95.71 2.6 95.71 29"/><path d="M114.39,24.94a2,2,0,0,0-1.42.6,2,2,0,0,0-.6,1.45,2,2,0,0,0,.6,1.42,2,2,0,0,0,1.42.59,1.94,1.94,0,0,0,1.44-.61,2,2,0,0,0,.57-1.4,2,2,0,0,0-.57-1.44A1.94,1.94,0,0,0,114.39,24.94Z"/><path d="M137.77,2.7A14,14,0,0,0,132.91,2a13.12,13.12,0,0,0-5.11,1,12.5,12.5,0,0,0-4.11,2.82,13.11,13.11,0,0,0-2.71,4.3,14.61,14.61,0,0,0-1,5.4,14.64,14.64,0,0,0,1,5.4,13.22,13.22,0,0,0,2.71,4.3A12.5,12.5,0,0,0,127.8,28a13.12,13.12,0,0,0,5.11,1,14,14,0,0,0,4.86-.74A11.69,11.69,0,0,0,141.41,26l.23-.21V21l-1.21,1.4a9.36,9.36,0,0,1-2,1.73A8.42,8.42,0,0,1,136,25.25a11.77,11.77,0,0,1-3.08.37,9,9,0,0,1-4.75-1.29,9.59,9.59,0,0,1-3.4-3.58,10.57,10.57,0,0,1-1.27-5.27,10.67,10.67,0,0,1,1.27-5.31,9.36,9.36,0,0,1,3.4-3.55,9.07,9.07,0,0,1,4.75-1.28,11.56,11.56,0,0,1,3,.37,8.58,8.58,0,0,1,2.49,1.08,8.83,8.83,0,0,1,2,1.71l1.21,1.39V5.13l-.23-.21A11.69,11.69,0,0,0,137.77,2.7Z"/><path d="M168.36,5.83h0A12.73,12.73,0,0,0,164.19,3a13.87,13.87,0,0,0-10.44,0,12.88,12.88,0,0,0-4.18,2.85,13.19,13.19,0,0,0-2.75,4.3,14.42,14.42,0,0,0-1,5.35,14.42,14.42,0,0,0,1,5.35,13.19,13.19,0,0,0,2.75,4.3A12.88,12.88,0,0,0,153.75,28a13.87,13.87,0,0,0,10.44,0,12.73,12.73,0,0,0,4.17-2.85,13.06,13.06,0,0,0,2.76-4.3,14.46,14.46,0,0,0,1-5.35,14.46,14.46,0,0,0-1-5.35A13.06,13.06,0,0,0,168.36,5.83Zm-1,14.9A9.26,9.26,0,0,1,164,24.34a10.09,10.09,0,0,1-10,0,9.38,9.38,0,0,1-3.43-3.61,10.92,10.92,0,0,1-1.26-5.25,10.85,10.85,0,0,1,1.26-5.26A9.31,9.31,0,0,1,159,5.3a9.47,9.47,0,0,1,5,1.32,9.35,9.35,0,0,1,3.41,3.59,11,11,0,0,1,1.24,5.27A11,11,0,0,1,167.37,20.73Z"/><polygon points="199.4 0 188.96 20.06 178.52 0 175.28 29 178.64 29 180.6 10.85 188.96 26.91 197.31 10.85 199.28 29 202.63 29 199.4 0"/><polygon points="21.04 29 24.76 29 28.36 20.18 29.16 18.32 33.12 8.67 37.11 18.31 41.49 29 45.21 29 33.12 0.56 21.04 29"/></svg>