<?xml version="1.0" encoding="utf-8"?>
<!-- Generator: Adobe Illustrator 26.0.1, SVG Export Plug-In . SVG Version: 6.00 Build 0)  -->
<svg version="1.1" id="Layer_1" xmlns="http://www.w3.org/2000/svg" xmlns:xlink="http://www.w3.org/1999/xlink" x="0px" y="0px"
	 viewBox="0 0 50 50" style="enable-background:new 0 0 50 50;" xml:space="preserve">
<style type="text/css">
	.st0{fill-rule:evenodd;clip-rule:evenodd;}
	.st1{fill-rule:evenodd;clip-rule:evenodd;fill:#DB5252;}
</style>
<g>
	<path class="st0" d="M38.4,19.8c-0.1-0.8-0.7-1.4-1.5-1.4h-3.7v-2c0-2.2-0.9-4.3-2.4-5.9S27.2,8.1,25,8.1s-4.3,0.9-5.9,2.4
		s-2.4,3.6-2.4,5.9v2H13c-0.8,0-1.4,0.6-1.5,1.3L7.9,40.3c0,0.4,0.1,0.8,0.4,1.1c0.3,0.3,0.7,0.5,1.1,0.5h31.4
		c0.4,0,0.8-0.2,1.1-0.5c0.3-0.3,0.4-0.7,0.4-1.1L38.4,19.8z M19.6,16.5c0-1.4,0.6-2.8,1.6-3.8c1-1,2.4-1.6,3.8-1.6s2.8,0.6,3.8,1.6
		c1,1,1.6,2.4,1.6,3.8v2H19.6V16.5z M10.9,38.9l3.5-17.6h2.3v2c0,0.8,0.6,1.5,1.5,1.5c0.8,0,1.5-0.7,1.5-1.5v-2h10.8v2
		c0,0.8,0.7,1.5,1.5,1.5c0.8,0,1.5-0.7,1.5-1.5v-2h2.3l3.5,17.6H10.9z"/>
</g>
<g>
	<polygon class="st1" points="32.1,27.6 23,36.7 17.9,31.6 19.6,29.8 23,33.2 30.4,25.9 	"/>
</g>
</svg>
