<?xml version="1.0" encoding="utf-8"?>
<!-- Svg Vector Icons : http://www.onlinewebfonts.com/icon -->
<!DOCTYPE svg PUBLIC "-//W3C//DTD SVG 1.1//EN" "http://www.w3.org/Graphics/SVG/1.1/DTD/svg11.dtd">
<svg version="1.1" xmlns="http://www.w3.org/2000/svg" xmlns:xlink="http://www.w3.org/1999/xlink" x="0px" y="0px" viewBox="0 0 1000 1000" enable-background="new 0 0 1000 1000" xml:space="preserve">
<metadata> Svg Vector Icons : http://www.onlinewebfonts.com/icon </metadata>
<g><path d="M990,500c0,270.6-219.4,490-490,490C229.4,990,10,770.6,10,500C10,229.4,229.4,10,500,10C770.6,10,990,229.4,990,500z M497.7,60C255.3,60,58.8,256.5,58.8,498.9s196.5,438.9,438.9,438.9c242.4,0,438.9-196.5,438.9-438.9C936.6,256.5,740.1,60,497.7,60z"/><path d="M471.6,719.7H310.1c-9,0-16.3-7.3-16.3-16.3V297.6c0-9,7.3-16.3,16.3-16.3h263.7l85.4,85.2l0,70c12.9,4.3,25.1,10,36.5,17V342.2l-97.3-97.3l-321.1-0.2c-10.8,0-19.5,8.5-19.5,19v473.1c0,10.5,8.7,19,19.5,19h238.3C498.9,746.2,484.1,734,471.6,719.7z"/><path d="M585.8,389.7c0,7.4-6,13.4-13.4,13.4H380.1c-7.4,0-13.4-6-13.4-13.4v-9.6c0-7.4,6-13.4,13.4-13.4h192.3c7.4,0,13.4,6,13.4,13.4V389.7z"/><path d="M512.9,499.3c0,7.4-6,13.4-13.4,13.4H380.3c-7.4,0-13.4-6-13.4-13.4v-9.8c0-7.4,6-13.4,13.4-13.4h119.3c7.4,0,13.4,6,13.4,13.4V499.3z"/><path d="M476.3,608.8c0,7.4-6,13.4-13.4,13.4h-82.9c-7.4,0-13.4-6-13.4-13.4v-9.5c0-7.4,6-13.4,13.4-13.4H463c7.4,0,13.4,6,13.4,13.4V608.8z"/><path d="M736.1,732.4l-3.5,3.5c-5.2,5.2-13.7,5.2-18.9,0L686,708.2c-11.3,7.2-24.8,11.4-39.2,11.4c-40.4,0-73.1-32.7-73.1-73.1c0-40.3,32.7-73.1,73.1-73.1c40.4,0,73.1,32.7,73.1,73.1c0,14.5-4.2,28-11.5,39.4l27.6,27.6C741.3,718.7,741.3,727.2,736.1,732.4z M647,610.2c-20.2,0-36.5,16.4-36.5,36.5c0,20.2,16.4,36.5,36.5,36.5s36.5-16.4,36.5-36.5C683.5,626.6,667.2,610.2,647,610.2z"/></g>
</svg>